GIL04_slow3_RRA_states
nRows=4
nColumns=47

# SIMM Motion File Header:
name GIL04_slow3_RRA_states
datacolumns 47
datarows 4
otherdata 1
range 0.68733000000000044000 0.68883000000000039000
endheader
time	pelvis_tx	pelvis_ty	pelvis_tz	pelvis_tilt	pelvis_list	pelvis_rotation	hip_flexion_r	hip_adduction_r	hip_rotation_r	knee_angle_r	ankle_angle_r	subtalar_angle_r	mtp_angle_r	hip_flexion_l	hip_adduction_l	hip_rotation_l	knee_angle_l	ankle_angle_l	subtalar_angle_l	mtp_angle_l	lumbar_extension	lumbar_bending	lumbar_rotation	pelvis_tx_u	pelvis_ty_u	pelvis_tz_u	pelvis_tilt_u	pelvis_list_u	pelvis_rotation_u	hip_flexion_r_u	hip_adduction_r_u	hip_rotation_r_u	knee_angle_r_u	ankle_angle_r_u	subtalar_angle_r_u	mtp_angle_r_u	hip_flexion_l_u	hip_adduction_l_u	hip_rotation_l_u	knee_angle_l_u	ankle_angle_l_u	subtalar_angle_l_u	mtp_angle_l_u	lumbar_extension_u	lumbar_bending_u	lumbar_rotation_u
      0.68733000000000044000	      0.61196818638044348000	      0.71881216375245705000	     -0.24862883730338606000	     -3.44305072887357610000	      2.73195838153186580000	      1.05927540297133920000	    -13.49975378277593000000	     -0.89758908685541683000	      0.57434961627095926000	    -23.67059505097589400000	     -3.54391941331264220000	      0.00000000000043325681	     -0.00000000000002000212	     21.64074512807338000000	      5.94706865153536680000	     -5.63006693638954750000	     -0.00022712476516871042	    -14.37328040655084200000	      0.00000000000000693960	      0.00000000000003005561	     -3.55140442622673590000	     -6.19869719855804040000	      5.36024074794960990000	      1.00364454628948030000	      0.14053133296776524000	     -0.16735699607158536000	    -21.63684988678016200000	     41.76215849774216300000	     10.71420833484184400000	    128.84049204746643000000	    -86.86613143890102200000	    -58.34332442669843000000	   -264.28308167280591000000	   -284.67544275977099000000	      0.00000000000135952262	     -0.00000000000012587665	    -29.50523581978053000000	     54.79422491056180200000	      7.43255715014507330000	    -51.92750299099230900000	     -8.23957906802097640000	     -0.00000000000014537499	      0.00000000000031454511	      9.00830458104740290000	    -51.56631230932895000000	     -5.49689136328872690000
      0.68783000000000039000	      0.61246962985910303000	      0.71888250494824302000	     -0.24871249462163059000	     -3.45386528886441240000	      2.75279475085015560000	      1.06460590128344060000	    -13.43512500365518600000	     -0.94101800241057831000	      0.54528692465047324000	    -23.80291741612716200000	     -3.68646598335990290000	      0.00000000000043393956	     -0.00000000000002006760	     21.62602144162647000000	      5.97439496097739210000	     -5.62650656119142760000	     -0.02625634417228981900	    -14.37707021350377300000	      0.00000000000000686463	      0.00000000000003021505	     -3.54696977864040040000	     -6.22441491343557550000	      5.35755358625509360000	      1.00212880058544360000	      0.14083106751004648000	     -0.16726938955440154000	    -21.62124143699651700000	     41.58231995824125700000	     10.60694329951718600000	    129.67440527456992000000	    -86.84793650716994800000	    -57.90708355056752100000	   -265.00593027183334000000	   -285.50604190063967000000	      0.00000000000136851962	     -0.00000000000012254306	    -29.39013246996158200000	     54.50979602904329400000	      6.80843969670637960000	    -52.18824968882466900000	     -6.92089871991308490000	     -0.00000000000017320847	      0.00000000000033409856	      8.73031518601444030000	    -51.30386872039713400000	     -5.25044284779795680000
      0.68833000000000044000	      0.61297031462379914000	      0.71895299244922339000	     -0.24879610382025696000	     -3.46467181063979530000	      2.77353969196652410000	      1.06988152452573710000	    -13.37007962862904300000	     -0.98443538711177925000	      0.51644294371236688000	    -23.93560056134779000000	     -3.82941952891834570000	      0.00000000000043462275	     -0.00000000000002012829	     21.61135437273454600000	      6.00157723972159470000	     -5.62325899082534160000	     -0.05241431636801807700	    -14.38020225700223000000	      0.00000000000000677566	      0.00000000000003038312	     -3.54267409411503650000	     -6.25000037646576260000	      5.35499159806933990000	      1.00060971318990810000	      0.14111657744894388000	     -0.16716454716056806000	    -21.60467505650282400000	     41.39642460515906900000	     10.49474811462270700000	    130.50681095311782000000	    -86.81992414496153300000	    -57.46837804211141100000	   -265.72625992973798000000	   -286.30107776830658000000	      0.00000000000136498897	     -0.00000000000011645202	    -29.27876612534248200000	     54.21812051020230400000	      6.18135724002596910000	    -52.44264990319588500000	     -5.60793327532413070000	     -0.00000000000017632967	      0.00000000000033689730	      8.45242770023658710000	    -51.03728072015993400000	     -4.99623703953867350000
      0.68883000000000039000	      0.61347023905001752000	      0.71902361919364111000	     -0.24887965629346545000	     -3.47546980938504560000	      2.79419016811388900000	      1.07509983417584400000	    -13.30461845189144800000	     -1.02783628526462100000	      0.48781893757755362000	    -24.06864323962144100000	     -3.97276106449237700000	      0.00000000000043530551	     -0.00000000000002018485	     21.59674203996324600000	      6.02861188311087660000	     -5.62032564971783350000	     -0.07869789488322821700	    -14.38267914269515500000	      0.00000000000000668338	      0.00000000000003055665	     -3.53851731787721760000	     -6.27545150699383920000	      5.35255862378601770000	      0.99908749363769578000	      0.14138809469914820000	     -0.16704245350309244000	    -21.58718176305784900000	     41.20448569871775400000	     10.37766214071203000000	    131.33766106014221000000	    -86.78206451480318200000	    -57.02732806117138200000	   -266.44397022348545000000	   -287.06013095542670000000	      0.00000000000136877213	     -0.00000000000011377369	    -29.17121246436480000000	     53.91925546342562100000	      5.55159999408058180000	    -52.69045707055551000000	     -4.30094777241619930000	     -0.00000000000019148964	      0.00000000000036003292	      8.17473916042224860000	    -50.76657037218640100000	     -4.73438451288088660000
